%TF.GenerationSoftware,KiCad,Pcbnew,9.0.6*%
%TF.CreationDate,2025-12-28T20:57:02+00:00*%
%TF.ProjectId,demeter,64656d65-7465-4722-9e6b-696361645f70,rev?*%
%TF.SameCoordinates,Original*%
%TF.FileFunction,Profile,NP*%
%FSLAX46Y46*%
G04 Gerber Fmt 4.6, Leading zero omitted, Abs format (unit mm)*
G04 Created by KiCad (PCBNEW 9.0.6) date 2025-12-28 20:57:02*
%MOMM*%
%LPD*%
G01*
G04 APERTURE LIST*
%TA.AperFunction,Profile*%
%ADD10C,0.150000*%
%TD*%
G04 APERTURE END LIST*
D10*
X92434593Y-50911574D02*
X92446098Y-56582542D01*
X167152226Y-54981240D02*
X167132000Y-75098515D01*
X122850000Y-102760000D02*
X147460000Y-114090000D01*
X131564000Y-50264000D02*
G75*
G02*
X131064000Y-49764000I0J500000D01*
G01*
X130564000Y-45014000D02*
G75*
G02*
X131064000Y-45514000I0J-500000D01*
G01*
X76001082Y-112569869D02*
X73288472Y-62196856D01*
X185868101Y-121827278D02*
G75*
G02*
X185911063Y-115737040I9766099J2976378D01*
G01*
X149410000Y-127830000D02*
X157180696Y-132383880D01*
X112656447Y-49806447D02*
X112614589Y-45671567D01*
X148574000Y-50264000D02*
X131564000Y-50264000D01*
X95212469Y-112409054D02*
X76632508Y-113194884D01*
X148574000Y-50264000D02*
G75*
G02*
X149097952Y-50812000I-24600J-548000D01*
G01*
X130564000Y-45014000D02*
X113254589Y-45041567D01*
X166490000Y-54220000D02*
G75*
G02*
X167152242Y-54981241I-52900J-714700D01*
G01*
X112156447Y-50306447D02*
X93074593Y-50281574D01*
X175490000Y-152180001D02*
X189380000Y-128150000D01*
X96160000Y-103730000D02*
G75*
G02*
X97710000Y-102190022I1541600J-1600D01*
G01*
X96460000Y-111190000D02*
X96160000Y-103730000D01*
X120500000Y-102160000D02*
G75*
G02*
X122849990Y-102760018I4600J-4883900D01*
G01*
X112656447Y-49806447D02*
G75*
G02*
X112156447Y-50306447I-500047J47D01*
G01*
X92434593Y-50911574D02*
G75*
G02*
X93074593Y-50281562I655907J-26226D01*
G01*
X168026236Y-76197223D02*
G75*
G02*
X167131977Y-75098514I164564J1047223D01*
G01*
X185868101Y-121827278D02*
X185883050Y-125261200D01*
X175490000Y-152180001D02*
G75*
G02*
X174660001Y-152379997I-546900J447401D01*
G01*
X76632508Y-113194884D02*
G75*
G02*
X76001046Y-112569868I-19708J611584D01*
G01*
X166490000Y-54220000D02*
X149618226Y-54199240D01*
X90188006Y-59092542D02*
X75756732Y-59893213D01*
X148950000Y-116890000D02*
X148940000Y-126790000D01*
X92446098Y-56582542D02*
G75*
G02*
X90188006Y-59092541I-2443398J-72558D01*
G01*
X96460000Y-111190000D02*
G75*
G02*
X95212466Y-112409033I-1440000J225800D01*
G01*
X147460000Y-114090000D02*
G75*
G02*
X148950002Y-116890000I-1720500J-2712000D01*
G01*
X157180696Y-132383880D02*
G75*
G02*
X157510128Y-132868325I-523496J-710220D01*
G01*
X149410000Y-127830000D02*
G75*
G02*
X148940013Y-126790001I685100J935800D01*
G01*
X73288472Y-62196856D02*
G75*
G02*
X75756732Y-59893181I2440428J-140644D01*
G01*
X189060000Y-127110000D02*
X185883050Y-125261200D01*
X112614589Y-45671567D02*
G75*
G02*
X113254589Y-45041557I655911J-26233D01*
G01*
X185936622Y-76202776D02*
X168026236Y-76197223D01*
X149118226Y-53699240D02*
X149098000Y-50812000D01*
X185936622Y-76202776D02*
X185911057Y-115737038D01*
X189060000Y-127110000D02*
G75*
G02*
X189380037Y-128150019I-365100J-681600D01*
G01*
X158918624Y-143109539D02*
G75*
G02*
X158528643Y-142469537I506976J747739D01*
G01*
X149618226Y-54199240D02*
G75*
G02*
X149118160Y-53699240I-26J500040D01*
G01*
X97710000Y-102190000D02*
X120500000Y-102160000D01*
X157510136Y-132868323D02*
X158528624Y-142469539D01*
X131064000Y-49764000D02*
X131064000Y-45514000D01*
X158918624Y-143109539D02*
X174660000Y-152380000D01*
M02*
