%TF.GenerationSoftware,KiCad,Pcbnew,9.0.6*%
%TF.CreationDate,2025-12-28T20:57:02+00:00*%
%TF.ProjectId,demeter,64656d65-7465-4722-9e6b-696361645f70,rev?*%
%TF.SameCoordinates,Original*%
%TF.FileFunction,Soldermask,Top*%
%TF.FilePolarity,Negative*%
%FSLAX46Y46*%
G04 Gerber Fmt 4.6, Leading zero omitted, Abs format (unit mm)*
G04 Created by KiCad (PCBNEW 9.0.6) date 2025-12-28 20:57:02*
%MOMM*%
%LPD*%
G01*
G04 APERTURE LIST*
G04 Aperture macros list*
%AMFreePoly0*
4,1,6,0.500000,-0.750000,-0.650000,-0.750000,-0.150000,0.000000,-0.650000,0.750000,0.500000,0.750000,0.500000,-0.750000,0.500000,-0.750000,$1*%
%AMFreePoly1*
4,1,6,0.150000,0.000000,0.650000,-0.750000,-0.500000,-0.750000,-0.500000,0.750000,0.650000,0.750000,0.150000,0.000000,0.150000,0.000000,$1*%
%AMFreePoly2*
4,1,6,0.500000,-0.750000,-0.500000,-0.750000,-1.000000,0.000000,-0.500000,0.750000,0.500000,0.750000,0.500000,-0.750000,0.500000,-0.750000,$1*%
%AMFreePoly3*
4,1,6,1.000000,0.000000,0.500000,-0.750000,-0.500000,-0.750000,-0.500000,0.750000,0.500000,0.750000,1.000000,0.000000,1.000000,0.000000,$1*%
G04 Aperture macros list end*
%ADD10C,1.397000*%
%ADD11C,1.701800*%
%ADD12C,3.429000*%
%ADD13C,2.032000*%
%ADD14C,1.000000*%
%ADD15R,0.900000X0.900000*%
%ADD16R,1.250000X0.900000*%
%ADD17C,1.752600*%
%ADD18R,1.524000X0.500000*%
%ADD19FreePoly0,180.000000*%
%ADD20FreePoly1,180.000000*%
%ADD21FreePoly2,180.000000*%
%ADD22FreePoly3,180.000000*%
%ADD23C,4.400000*%
%ADD24C,2.000000*%
G04 APERTURE END LIST*
D10*
%TO.C,Bat+1*%
X183571918Y-77344000D03*
X183571918Y-77344000D03*
%TD*%
%TO.C,BatGND1*%
X169347918Y-77344000D03*
X169347918Y-77344000D03*
%TD*%
D11*
%TO.C,SW2*%
X78332099Y-69784674D03*
D12*
X83824561Y-69496826D03*
D11*
X89317023Y-69208978D03*
D13*
X84133343Y-75388740D03*
X79030290Y-73553298D03*
X89016585Y-73029938D03*
%TD*%
D11*
%TO.C,SW3*%
X98410000Y-59020000D03*
D12*
X103910000Y-59020000D03*
D11*
X109410000Y-59020000D03*
D13*
X103910000Y-64920000D03*
X98910000Y-62820000D03*
X108910000Y-62820000D03*
%TD*%
D11*
%TO.C,SW4*%
X116410000Y-53660000D03*
D12*
X121910000Y-53660000D03*
D11*
X127410000Y-53660000D03*
D13*
X121910000Y-59560000D03*
X116910000Y-57460000D03*
X126910000Y-57460000D03*
%TD*%
D11*
%TO.C,SW5*%
X134410000Y-59020000D03*
D12*
X139910000Y-59020000D03*
D11*
X145410000Y-59020000D03*
D13*
X139910000Y-64920000D03*
X134910000Y-62820000D03*
X144910000Y-62820000D03*
%TD*%
D11*
%TO.C,SW6*%
X152410000Y-62900000D03*
D12*
X157910000Y-62900000D03*
D11*
X163410000Y-62900000D03*
D13*
X157910000Y-68800000D03*
X152910000Y-66700000D03*
X162910000Y-66700000D03*
%TD*%
D11*
%TO.C,SW8*%
X79221809Y-86761376D03*
D12*
X84714271Y-86473528D03*
D11*
X90206733Y-86185680D03*
D13*
X85023053Y-92365442D03*
X79920000Y-90530000D03*
X89906295Y-90006640D03*
%TD*%
D11*
%TO.C,SW9*%
X98410000Y-76020000D03*
D12*
X103910000Y-76020000D03*
D11*
X109410000Y-76020000D03*
D13*
X103910000Y-81920000D03*
X98910000Y-79820000D03*
X108910000Y-79820000D03*
%TD*%
D11*
%TO.C,SW10*%
X116410000Y-70660000D03*
D12*
X121910000Y-70660000D03*
D11*
X127410000Y-70660000D03*
D13*
X121910000Y-76560000D03*
X116910000Y-74460000D03*
X126910000Y-74460000D03*
%TD*%
D11*
%TO.C,SW11*%
X134410000Y-76020000D03*
D12*
X139910000Y-76020000D03*
D11*
X145410000Y-76020000D03*
D13*
X139910000Y-81920000D03*
X134910000Y-79820000D03*
X144910000Y-79820000D03*
%TD*%
D11*
%TO.C,SW12*%
X152410000Y-79900000D03*
D12*
X157910000Y-79900000D03*
D11*
X163410000Y-79900000D03*
D13*
X157910000Y-85800000D03*
X152910000Y-83700000D03*
X162910000Y-83700000D03*
%TD*%
D11*
%TO.C,SW14*%
X80111521Y-103738078D03*
D12*
X85603983Y-103450230D03*
D11*
X91096445Y-103162382D03*
D13*
X85912765Y-109342144D03*
X80809712Y-107506702D03*
X90796007Y-106983342D03*
%TD*%
D11*
%TO.C,SW15*%
X98410000Y-93020000D03*
D12*
X103910000Y-93020000D03*
D11*
X109410000Y-93020000D03*
D13*
X103910000Y-98920000D03*
X98910000Y-96820000D03*
X108910000Y-96820000D03*
%TD*%
D11*
%TO.C,SW16*%
X116410000Y-87660000D03*
D12*
X121910000Y-87660000D03*
D11*
X127410000Y-87660000D03*
D13*
X121910000Y-93560000D03*
X116910000Y-91460000D03*
X126910000Y-91460000D03*
%TD*%
D11*
%TO.C,SW17*%
X134410000Y-93020000D03*
D12*
X139910000Y-93020000D03*
D11*
X145410000Y-93020000D03*
D13*
X139910000Y-98920000D03*
X134910000Y-96820000D03*
X144910000Y-96820000D03*
%TD*%
D11*
%TO.C,SW18*%
X152410000Y-96900000D03*
D12*
X157910000Y-96900000D03*
D11*
X163410000Y-96900000D03*
D13*
X157910000Y-102800000D03*
X152910000Y-100700000D03*
X162910000Y-100700000D03*
%TD*%
D11*
%TO.C,SW20*%
X164374075Y-117914752D03*
D12*
X161624075Y-122677892D03*
D11*
X158874075Y-127441032D03*
D13*
X156514525Y-119727892D03*
X160833178Y-116447765D03*
X155833178Y-125108019D03*
%TD*%
D11*
%TO.C,SW21*%
X177074075Y-130614752D03*
D12*
X174324075Y-135377892D03*
D11*
X171574075Y-140141032D03*
D13*
X169214525Y-132427892D03*
X173533178Y-129147765D03*
X168533178Y-137808019D03*
%TD*%
D14*
%TO.C,SW_POWER1*%
X182880000Y-117416037D03*
X182880000Y-120416037D03*
D15*
X183980000Y-115216037D03*
X181780000Y-115216037D03*
X183980000Y-122616037D03*
X181780000Y-122616037D03*
D16*
X180805000Y-121166037D03*
X180805000Y-118166037D03*
X180805000Y-116666037D03*
%TD*%
D17*
%TO.C,U1*%
X169095918Y-80008000D03*
X169095918Y-82548000D03*
X169095918Y-85088000D03*
X169095918Y-87628000D03*
D18*
X170465918Y-80008000D03*
X170465918Y-82548000D03*
X170465918Y-85088000D03*
X170510918Y-87578000D03*
D19*
X171390918Y-80008000D03*
X171390918Y-82548000D03*
X171390918Y-85088000D03*
X171435918Y-87578000D03*
D20*
X182065918Y-80048000D03*
X182065918Y-82588000D03*
X182065918Y-85128000D03*
X182110918Y-87618000D03*
D18*
X183015918Y-80048000D03*
X183015918Y-82588000D03*
X183015918Y-85128000D03*
X183060918Y-87618000D03*
D17*
X184335918Y-80008000D03*
X184335918Y-82548000D03*
X184335918Y-85088000D03*
X184335918Y-87628000D03*
D21*
X180615918Y-80048000D03*
X180615918Y-82588000D03*
X180615918Y-85128000D03*
X180660918Y-87618000D03*
D17*
X184335918Y-90168000D03*
X184335918Y-92708000D03*
X184335918Y-95248000D03*
X184335918Y-97788000D03*
X184335918Y-100328000D03*
X184335918Y-102868000D03*
X184335918Y-105408000D03*
X184335918Y-107948000D03*
X169095918Y-107948000D03*
X169095918Y-105408000D03*
X169095918Y-102868000D03*
X169095918Y-100328000D03*
X169095918Y-97788000D03*
X169095918Y-95248000D03*
X169095918Y-92708000D03*
X169095918Y-90168000D03*
D22*
X172885918Y-87578000D03*
X172840918Y-85088000D03*
X172840918Y-82548000D03*
X172840918Y-80008000D03*
D17*
X176515918Y-102918000D03*
X179055918Y-102918000D03*
X181595918Y-102918000D03*
%TD*%
D23*
%TO.C,REF\u002A\u002A*%
X113098855Y-91515485D03*
X137515485Y-102901145D03*
X148901145Y-78484515D03*
%TD*%
D24*
%TO.C,RSW1*%
X175925000Y-111640000D03*
X175925000Y-118140000D03*
%TD*%
M02*
