M48
; DRILL file {KiCad 9.0.6} date 2025-12-28T20:57:14+0000
; FORMAT={-:-/ absolute / metric / decimal}
; #@! TF.CreationDate,2025-12-28T20:57:14+00:00
; #@! TF.GenerationSoftware,Kicad,Pcbnew,9.0.6
; #@! TF.FileFunction,MixedPlating,1,2
FMAT,2
METRIC
; #@! TA.AperFunction,Plated,PTH,ViaDrill
T1C0.400
; #@! TA.AperFunction,Plated,PTH,ComponentDrill
T2C0.813
; #@! TA.AperFunction,Plated,PTH,ComponentDrill
T3C1.092
; #@! TA.AperFunction,Plated,PTH,ComponentDrill
T4C1.270
; #@! TA.AperFunction,Plated,PTH,ComponentDrill
T5C1.300
; #@! TA.AperFunction,Plated,PTH,ComponentDrill
T6C2.200
; #@! TA.AperFunction,NonPlated,NPTH,ComponentDrill
T7C0.900
; #@! TA.AperFunction,NonPlated,NPTH,ComponentDrill
T8C1.702
; #@! TA.AperFunction,NonPlated,NPTH,ComponentDrill
T9C3.429
%
G90
G05
T1
X170.18Y-99.06
X171.52Y-98.96
X172.142Y-91.694
X173.12Y-98.806
X174.172Y-82.548
X174.301Y-92.329
X174.428Y-79.502
X174.682Y-97.536
X175.952Y-79.502
X175.952Y-81.026
X175.972Y-97.536
X177.222Y-83.566
X179.254Y-83.82
X180.34Y-109.15
X180.805Y-118.166
X181.2Y-113.06
X181.54Y-76.62
T2
X169.348Y-77.344
X169.348Y-77.344
X183.572Y-77.344
X183.572Y-77.344
T3
X169.096Y-80.008
X169.096Y-82.548
X169.096Y-85.088
X169.096Y-87.628
X169.096Y-90.168
X169.096Y-92.708
X169.096Y-95.248
X169.096Y-97.788
X169.096Y-100.328
X169.096Y-102.868
X169.096Y-105.408
X169.096Y-107.948
X176.516Y-102.918
X179.056Y-102.918
X181.596Y-102.918
X184.336Y-80.008
X184.336Y-82.548
X184.336Y-85.088
X184.336Y-87.628
X184.336Y-90.168
X184.336Y-92.708
X184.336Y-95.248
X184.336Y-97.788
X184.336Y-100.328
X184.336Y-102.868
X184.336Y-105.408
X184.336Y-107.948
T4
X79.03Y-73.553
X79.92Y-90.53
X80.81Y-107.507
X84.133Y-75.389
X85.023Y-92.365
X85.913Y-109.342
X89.017Y-73.03
X89.906Y-90.007
X90.796Y-106.983
X98.91Y-62.82
X98.91Y-79.82
X98.91Y-96.82
X103.91Y-64.92
X103.91Y-81.92
X103.91Y-98.92
X108.91Y-62.82
X108.91Y-79.82
X108.91Y-96.82
X116.91Y-57.46
X116.91Y-74.46
X116.91Y-91.46
X121.91Y-59.56
X121.91Y-76.56
X121.91Y-93.56
X126.91Y-57.46
X126.91Y-74.46
X126.91Y-91.46
X134.91Y-62.82
X134.91Y-79.82
X134.91Y-96.82
X139.91Y-64.92
X139.91Y-81.92
X139.91Y-98.92
X144.91Y-62.82
X144.91Y-79.82
X144.91Y-96.82
X152.91Y-66.7
X152.91Y-83.7
X152.91Y-100.7
X155.833Y-125.108
X156.515Y-119.728
X157.91Y-68.8
X157.91Y-85.8
X157.91Y-102.8
X160.833Y-116.448
X162.91Y-66.7
X162.91Y-83.7
X162.91Y-100.7
X168.533Y-137.808
X169.215Y-132.428
X173.533Y-129.148
T5
X175.925Y-111.64
X175.925Y-118.14
T6
X113.099Y-91.515
X137.515Y-102.901
X148.901Y-78.485
T7
X182.88Y-117.416
X182.88Y-120.416
T8
X78.332Y-69.785
X79.222Y-86.761
X80.112Y-103.738
X89.317Y-69.209
X90.207Y-86.186
X91.096Y-103.162
X98.41Y-59.02
X98.41Y-76.02
X98.41Y-93.02
X109.41Y-59.02
X109.41Y-76.02
X109.41Y-93.02
X116.41Y-53.66
X116.41Y-70.66
X116.41Y-87.66
X127.41Y-53.66
X127.41Y-70.66
X127.41Y-87.66
X134.41Y-59.02
X134.41Y-76.02
X134.41Y-93.02
X145.41Y-59.02
X145.41Y-76.02
X145.41Y-93.02
X152.41Y-62.9
X152.41Y-79.9
X152.41Y-96.9
X158.874Y-127.441
X163.41Y-62.9
X163.41Y-79.9
X163.41Y-96.9
X164.374Y-117.915
X171.574Y-140.141
X177.074Y-130.615
T9
X83.825Y-69.497
X84.714Y-86.474
X85.604Y-103.45
X103.91Y-59.02
X103.91Y-76.02
X103.91Y-93.02
X121.91Y-53.66
X121.91Y-70.66
X121.91Y-87.66
X139.91Y-59.02
X139.91Y-76.02
X139.91Y-93.02
X157.91Y-62.9
X157.91Y-79.9
X157.91Y-96.9
X161.624Y-122.678
X174.324Y-135.378
M30
